<?xml version="1.0" ?><!DOCTYPE svg  PUBLIC '-//W3C//DTD SVG 1.1//EN'  'http://www.w3.org/Graphics/SVG/1.1/DTD/svg11.dtd'><svg height="512px" style="enable-background:new 0 0 512 512;" version="1.1" viewBox="0 0 512 512" width="512px" xml:space="preserve" xmlns="http://www.w3.org/2000/svg" xmlns:xlink="http://www.w3.org/1999/xlink"><g id="_x36_42_x2C__Love_x2C__marriage_x2C__passion_x2C__perfume_x2C__valentine_x2C__wedding"><g><path d="M276.623,144.76c19.33,0,37.72,4.051,54.37,11.33c48,20.971,81.55,68.86,81.55,124.591    c0,75.069-60.85,135.92-135.92,135.92c-75.06,0-135.92-60.851-135.92-135.92c0-55.73,33.55-103.62,81.55-124.591    C238.913,148.811,257.293,144.76,276.623,144.76z" style="fill:#CAE8FB;"/><path d="M148.703,292.744c0-55.73,33.55-103.62,81.55-124.591c16.66-7.279,35.04-11.33,54.37-11.33    s37.72,4.051,54.37,11.33c21.882,9.56,40.744,24.727,54.811,43.667c-14.481-24.581-36.46-44.218-62.811-55.73    c-16.65-7.279-35.04-11.33-54.37-11.33s-37.71,4.051-54.37,11.33c-48,20.971-81.55,68.86-81.55,124.591    c0,30.347,9.949,58.368,26.759,80.987C155.547,341.459,148.703,317.902,148.703,292.744z" style="fill:#AACFE2;"/><polygon points="294.753,72.271 294.753,99.46 290.522,99.46 262.733,99.46 258.503,99.46 258.503,45.09     294.753,45.09   " style="fill:#EF3E5C;"/><polygon points="266.67,53.238 294.753,53.238 294.753,45.09 258.503,45.09 258.503,99.46 262.733,99.46     266.67,99.46   " style="fill:#E42A53;"/><path d="M330.993,139.93v16.16c-16.65-7.279-35.04-11.33-54.37-11.33s-37.71,4.051-54.37,11.33v-16.16    c0-22.35,18.13-40.47,40.48-40.47h27.789C312.873,99.46,330.993,117.58,330.993,139.93z" style="fill:#FFC592;"/><path d="M231.313,146.504c0-22.35,18.13-40.47,40.48-40.47h27.789c6.857,0,13.313,1.712,18.973,4.722    c-7.274-6.99-17.147-11.296-28.032-11.296h-27.789c-22.351,0-40.48,18.12-40.48,40.47v16.16c2.966-1.296,5.989-2.484,9.06-3.571    V146.504z" style="fill:#EFAD7D;"/><path d="M309.113,226.32c17.1,0,30.939,13.64,30.939,30.46c0,30.46-30.939,47.81-61.85,78.271    c-30.91-30.461-61.82-47.811-61.82-78.271c0-16.82,13.851-30.46,30.91-30.46c15.46,0,23.18,7.609,30.91,22.84    C285.933,233.93,293.653,226.32,309.113,226.32z" style="fill:#EF3E5C;"/><g><g><g><path d="M232.918,261.912c0-16.82,13.851-30.46,30.91-30.46c0.366,0,0.707,0.025,1.064,0.033       c-4.68-3.43-10.262-5.165-17.6-5.165c-17.06,0-30.91,13.64-30.91,30.46c0,30.46,30.91,47.81,61.82,78.271       c1.833-1.806,3.665-3.563,5.491-5.282C256.874,305.386,232.918,288.727,232.918,261.912z" style="fill:#E42A53;"/></g></g></g><path d="M276.623,376.301c-2.762,0-5-2.238-5-5s2.238-5,5-5c27.186,0,52.153-12.484,68.502-34.253    c2.029-2.703,3.935-5.586,5.663-8.565c1.384-2.388,4.444-3.204,6.833-1.817c2.389,1.385,3.203,4.444,1.817,6.833    c-1.925,3.32-4.05,6.535-6.316,9.555C334.865,362.36,306.983,376.301,276.623,376.301z" style="fill:#AACFE2;"/><path d="M394.423,113.521c-1.294,0-2.587-0.499-3.565-1.495c-5.135-5.224-11.223-9.963-18.097-14.088    c-33.878-20.386-77.573-20.667-78.011-20.667c-2.76-0.003-4.997-2.242-4.996-5.003c0.002-2.761,2.238-4.997,4.999-4.997    c1.896,0,46.855,0.251,83.158,22.096c7.594,4.557,14.351,9.822,20.077,15.649c1.937,1.969,1.909,5.135-0.061,7.07    C396.954,113.043,395.688,113.521,394.423,113.521z" style="fill:#EF3E5C;"/><path d="M376.303,421.601H131.644c-2.762,0-5-2.238-5-5s2.238-5,5-5h244.659c2.762,0,5,2.238,5,5    S379.064,421.601,376.303,421.601z" style="fill:#EF3E5C;"/><path d="M213.193,448.79H68.213c-2.761,0-5-2.238-5-5s2.239-5,5-5h144.98c2.761,0,5,2.238,5,5    S215.954,448.79,213.193,448.79z" style="fill:#FFC592;"/><path d="M430.663,466.91h-54.36c-2.762,0-5-2.238-5-5s2.238-5,5-5h54.36c2.762,0,5,2.238,5,5    S433.425,466.91,430.663,466.91z" style="fill:#FFC592;"/><path d="M375.333,93.65c0.58-0.811,1.229-1.57,1.939-2.28c11.391-11.38,35.29-5.94,53.4,12.17    c18.1,18.11,23.55,42.01,12.17,53.4c-11.39,11.38-35.29,5.939-53.399-12.17C372.463,127.79,366.613,105.73,375.333,93.65z" style="fill:#EF3E5C;"/><path d="M377.822,103.485c0.58-0.811,1.229-1.57,1.939-2.28c11.391-11.38,35.29-5.94,53.4,12.17    c7.207,7.211,12.4,15.34,15.332,23.231c-1.363-10.659-7.554-22.793-17.821-33.066c-18.11-18.11-42.01-23.55-53.4-12.17    c-0.71,0.71-1.359,1.47-1.939,2.28c-5.018,6.951-5.202,17.207-1.227,27.897C373.216,114.59,374.378,108.257,377.822,103.485z" style="fill:#E42A53;"/></g></g><g id="Layer_1"/></svg>