<svg fill="#000000" height="200px" width="200px" version="1.1" id="Layer_1" xmlns="http://www.w3.org/2000/svg" xmlns:xlink="http://www.w3.org/1999/xlink" viewBox="0 0 512.008 512.008" xml:space="preserve"><g id="SVGRepo_bgCarrier" stroke-width="0"></g><g id="SVGRepo_tracerCarrier" stroke-linecap="round" stroke-linejoin="round"></g><g id="SVGRepo_iconCarrier"> <g> <g> <path d="M452.245,7.835c-0.393-4.702-4.497-8.235-9.216-7.799c-1.638,0.137-16.358,1.809-28.177,18.176 c-15.454,21.427-18.082,57.105-8.124,105.882c-74.564-19.328-132.13,25.873-150.724,43.119 c-18.594-17.246-76.16-62.438-150.724-43.11c9.958-48.785,7.33-84.463-8.124-105.89C85.337,1.844,70.617,0.172,68.979,0.035 c-4.71-0.427-8.823,3.098-9.216,7.799c-0.384,4.693,3.106,8.815,7.799,9.207c0.085,0.008,8.525,1.135,15.753,11.153 c9.523,13.201,17.638,42.24,2.441,105.54c-3.9,8.371-28.621,66.859,16.341,117.205c6.733,7.543,11.162,17.212,12.792,27.981 c3.738,24.653,19.959,151.134-28.006,219.657c-1.826,2.611-2.048,6.007-0.58,8.832s4.386,4.599,7.569,4.599h324.267 c3.183,0,6.101-1.775,7.569-4.599c1.468-2.825,1.246-6.221-0.58-8.832c-47.966-68.523-31.744-195.004-28.006-219.657 c1.63-10.769,6.059-20.437,12.783-27.981c44.971-50.347,20.25-108.834,16.35-117.205c-15.019-62.583-7.211-91.622,2.022-104.951 c7.211-10.394,15.701-11.674,16.299-11.75C449.207,16.573,452.629,12.485,452.245,7.835z"></path> </g> </g> </g></svg>