<svg height="200px" width="200px" version="1.1" id="Layer_1" xmlns="http://www.w3.org/2000/svg" xmlns:xlink="http://www.w3.org/1999/xlink" viewBox="0 0 512.217 512.217" xml:space="preserve" fill="#000000"><g id="SVGRepo_bgCarrier" stroke-width="0"></g><g id="SVGRepo_tracerCarrier" stroke-linecap="round" stroke-linejoin="round"></g><g id="SVGRepo_iconCarrier"> <g transform="translate(1 1)"> <path style="fill:#FFE100;" d="M297.884,468.442c52.907-0.853,156.16-9.387,204.8-59.733c0,0,0-40.96-70.827-49.493 c-55.467-6.827-107.52-35.84-136.533-83.627c-28.16-46.08-31.573-105.813-31.573-214.187c0-10.24-6.827-19.627-17.067-19.627 h-204.8c-9.387,0-17.067,8.533-17.067,17.92c2.56,48.64,8.533,180.907-17.067,212.48c0,0,206.507,173.227,214.187,177.493 C244.124,463.322,272.284,469.295,297.884,468.442"></path> <g> <path style="fill:#FDCC00;" d="M264.604,127.109h-94.72v51.2h97.28C266.311,162.949,265.457,145.882,264.604,127.109"></path> <path style="fill:#FDCC00;" d="M26.524,178.309h75.093v-51.2h-74.24C27.377,143.322,27.377,161.242,26.524,178.309"></path> <polygon style="fill:#FDCC00;" points="169.884,195.375 135.751,229.509 101.617,195.375 101.617,41.775 169.884,41.775 "></polygon> </g> <path style="fill:#FFE100;" d="M7.751,272.175l25.6,196.267h85.333l11.947-93.013C72.604,326.789,7.751,272.175,7.751,272.175"></path> <path style="fill:#FFA800;" d="M431.857,359.215c-55.467-6.827-107.52-35.84-136.533-83.627 c-28.16-46.08-31.573-105.813-31.573-214.187c0-10.24-6.827-19.627-17.067-19.627h-25.6c10.24,0,17.067,9.387,17.067,19.627 c0,108.373,3.413,168.107,31.573,213.333c29.867,47.787,81.067,93.013,136.533,99.84c70.827,8.533,70.827,34.133,70.827,34.133 c-44.373,46.933-137.387,57.173-192.853,59.733c4.267,0,8.533,0.853,13.653,0c52.907-0.853,156.16-9.387,204.8-59.733 C502.684,408.709,502.684,367.749,431.857,359.215"></path> <g> <path style="fill:#FFFFFF;" d="M26.524,287.535c25.6-31.573,27.307-179.2,24.747-227.84c-0.853-9.387,6.827-17.92,16.213-17.92 h-25.6c-9.387,0-17.067,8.533-17.067,17.92c2.56,48.64,8.533,180.907-17.067,212.48L26.524,287.535z"></path> <path style="fill:#FFFFFF;" d="M7.751,272.175l25.6,196.267h25.6L36.764,296.069C19.697,281.562,7.751,272.175,7.751,272.175"></path> </g> <path d="M144.284,84.442c0,5.12-3.413,8.533-8.533,8.533c-5.12,0-8.533-3.413-8.533-8.533c0-5.12,3.413-8.533,8.533-8.533 C140.871,75.909,144.284,79.322,144.284,84.442"></path> <path d="M135.751,238.042c-2.56,0-4.267-0.853-5.973-2.56l-34.133-34.133c-1.707-1.707-2.56-3.413-2.56-5.973v-153.6 c0-5.12,3.413-8.533,8.533-8.533h68.267c5.12,0,8.533,3.413,8.533,8.533v153.6c0,2.56-0.853,4.267-2.56,5.973l-34.133,34.133 C140.017,237.189,138.311,238.042,135.751,238.042z M110.151,191.962l25.6,25.6l25.6-25.6V50.309h-51.2V191.962z"></path> <path d="M295.324,476.975c-28.16,0-56.32-6.827-77.653-19.627c-7.68-5.12-180.907-149.333-215.04-178.347 c-3.413-3.413-4.267-8.533-0.853-11.947c6.827-9.387,23.04-47.787,14.507-206.507c0-6.827,1.707-13.653,6.827-18.773 c5.12-5.973,11.947-8.533,18.773-8.533h204.8c14.507,0,25.6,11.947,25.6,28.16c0,113.493,4.267,167.253,29.867,209.067 c27.307,44.373,75.093,73.387,130.56,80.213c77.653,9.387,78.507,56.32,78.507,58.027c0,2.56-0.853,4.267-2.56,5.973 c-49.493,52.053-153.6,61.44-210.773,62.293L295.324,476.975z M18.844,270.469c81.92,68.267,200.533,167.253,207.36,172.373 c17.92,11.093,43.52,17.067,68.267,17.067h2.56c53.76-0.853,149.333-9.387,196.267-54.613c-1.707-8.533-11.947-32.427-63.147-38.4 c-61.44-7.68-113.493-39.253-143.36-87.893c-29.013-48.64-31.573-115.2-31.573-217.6c0-5.973-2.56-11.093-8.533-11.093h-204.8 c-2.56,0-4.267,0.853-5.973,2.56c-1.707,1.707-2.56,4.267-2.56,5.973C39.324,170.629,35.057,241.455,18.844,270.469z"></path> <path d="M118.684,476.975H33.351c-4.267,0-7.68-3.413-8.533-7.68l-25.6-196.267c-0.853-3.413,0.853-6.827,4.267-8.533 s6.827-1.707,9.387,0.853c0,0,64.853,54.613,122.88,103.253c2.56,1.707,3.413,5.12,3.413,7.68l-11.947,93.013 C126.364,473.562,122.951,476.975,118.684,476.975z M41.031,459.909h69.973l10.24-81.067 c-39.253-32.427-80.213-67.413-102.4-86.187L41.031,459.909z"></path> <path d="M267.164,186.842h-97.28c-5.12,0-8.533-3.413-8.533-8.533v-51.2c0-5.12,3.413-8.533,8.533-8.533h94.72 c4.267,0,8.533,3.413,8.533,8.533c0.853,19.627,1.707,36.693,2.56,50.347c0,2.56-0.853,5.12-2.56,6.827 C272.284,185.989,269.724,186.842,267.164,186.842z M178.417,169.775h79.36c-0.853-10.24-1.707-21.333-1.707-34.133h-77.653 V169.775z"></path> <path d="M101.617,186.842H26.524c-2.56,0-4.267-0.853-5.973-2.56s-2.56-4.267-2.56-5.973c0.853-15.36,0.853-32.427,0.853-50.347 c0-2.56,0.853-4.267,2.56-5.973c1.707-2.56,3.413-3.413,5.973-3.413h74.24c5.12,0,8.533,3.413,8.533,8.533v51.2 C110.151,183.429,106.737,186.842,101.617,186.842z M35.911,169.775h57.173v-34.133H35.911 C35.911,147.589,35.911,158.682,35.911,169.775z"></path> </g> </g></svg>