<svg height="200px" width="200px" version="1.1" id="Layer_1" xmlns="http://www.w3.org/2000/svg" xmlns:xlink="http://www.w3.org/1999/xlink" viewBox="0 0 512 512" xml:space="preserve" fill="#000000"><g id="SVGRepo_bgCarrier" stroke-width="0"></g><g id="SVGRepo_tracerCarrier" stroke-linecap="round" stroke-linejoin="round"></g><g id="SVGRepo_iconCarrier"> <path style="fill:#C75214;" d="M509.275,386.192l-50.906-206.895l-0.001-0.003l-14.695-59.725L235.085,98.654L256,500.873h163.39 C479.468,500.873,523.629,444.53,509.275,386.192z"></path> <path style="fill:#E37E31;" d="M68.328,119.568l-14.695,59.725l-0.001,0.003L2.725,386.192 C-11.629,444.53,32.532,500.874,92.61,500.874H256V98.654L68.328,119.568z"></path> <circle style="fill:#FBE27B;" cx="231.403" cy="43.325" r="32.2"></circle> <circle style="fill:#F7C02D;" cx="280.597" cy="43.325" r="32.2"></circle> <g> <polygon style="fill:#F39624;" points="256,119.568 256,119.568 443.672,119.568 458.368,179.294 458.369,179.297 443.672,119.568 "></polygon> <polygon style="fill:#F39624;" points="68.328,119.568 256,119.568 256,119.568 68.328,119.568 53.632,179.297 53.633,179.294 "></polygon> <path style="fill:#F39624;" d="M443.672,119.568l14.696,59.728c2.668,10.838,12.388,18.456,23.55,18.456l0,0 c15.741,0,27.312-14.763,23.551-30.048l-23.779-96.644H256l-20.915,27.601L256,119.568H443.672z"></path> </g> <path style="fill:#F7C02D;" d="M256,119.568V71.061H30.309L6.53,167.705c-3.761,15.285,7.81,30.048,23.551,30.048l0,0 c11.162,0,20.882-7.618,23.55-18.456l14.696-59.728H256z"></path> <path style="fill:#E37E31;" d="M419.39,462.65h-41.582v-31.347h41.582c9.252,0,14.948-4.791,18.098-8.811 c3.151-4.02,6.442-10.696,4.232-19.68l30.439-7.49c5.5,22.351-3.904,38.732-9.999,46.508 C456.065,449.607,442.405,462.65,419.39,462.65z"></path> </g></svg>