<svg height="200px" width="200px" version="1.1" id="Capa_1" xmlns="http://www.w3.org/2000/svg" xmlns:xlink="http://www.w3.org/1999/xlink" viewBox="0 0 464 464" xml:space="preserve" fill="#000000"><g id="SVGRepo_bgCarrier" stroke-width="0"></g><g id="SVGRepo_tracerCarrier" stroke-linecap="round" stroke-linejoin="round"></g><g id="SVGRepo_iconCarrier"> <g> <path style="fill:#EBD2AA;" d="M232,336c-2.682,0-5.348-0.07-8-0.195v22.047c2.954,1.638,5.658,3.671,8.033,6.037 c2.357-2.349,5.039-4.368,7.967-6v-22.085C237.348,335.93,234.682,336,232,336z"></path> <path style="fill:#E86464;" d="M224,357.853c-5.188-2.876-11.154-4.519-17.506-4.519c2.532,0,5.002,0.266,7.387,0.761 c-31.243,20.574-9.515,81.175,18.151,109.906c29.262-13.567,61.718-46.82,61.718-74.487c0-19.981-16.198-36.179-36.179-36.179 c-6.379,0-12.368,1.658-17.571,4.557c-2.928,1.631-5.611,3.651-7.967,6C229.658,361.523,226.954,359.49,224,357.853z"></path> <path style="fill:#D2464B;" d="M213.881,354.094c-2.385-0.495-4.855-0.761-7.387-0.761c-19.981,0-36.179,16.198-36.179,36.179 c0,27.667,32.456,60.92,61.718,74.487C204.366,435.269,182.639,374.668,213.881,354.094z"></path> <path style="fill:#FFE6B9;" d="M240,335.805c88.932-4.191,160-77.851,160-167.805C400,75.363,324.633,0,232,0S64,75.363,64,168 c0,89.954,71.068,163.615,160,167.805c2.652,0.125,5.318,0.195,8,0.195S237.348,335.93,240,335.805z M80,168 c0-83.813,68.188-152,152-152s152,68.188,152,152s-68.188,152-152,152S80,251.813,80,168z"></path> </g> </g></svg>